<svg width="69" height="183" viewBox="0 0 69 183" fill="none" xmlns="http://www.w3.org/2000/svg">
<path d="M96.4954 0.156546C112.499 1.93925 122.313 17.747 135.135 27.4879C148.41 37.5723 166.914 42.9377 173.156 58.3953C179.454 73.9927 173.51 91.8152 167.449 107.506C161.87 121.947 150.163 132.106 140.127 143.893C128.632 157.395 121.676 178.344 104.267 181.715C86.879 185.083 73.2221 167.006 56.9556 160.001C40.9921 153.126 19.6264 155.1 9.56195 140.929C-0.50263 126.759 8.1526 107.251 7.16629 89.8981C6.15267 72.0644 -5.91151 52.5781 3.68395 37.5118C13.3151 22.3895 36.1264 25.0057 52.7586 18.3115C67.7048 12.2959 80.4831 -1.62715 96.4954 0.156546Z" fill="#262E2C" fill-opacity="0.93"/>
</svg>
