<svg width="330" height="330" viewBox="0 0 330 330" fill="none" xmlns="http://www.w3.org/2000/svg">
<circle cx="165" cy="165" r="165" fill="#B2C41B"/>
<mask id="path-2-outside-1_714_868" maskUnits="userSpaceOnUse" x="68.957" y="57" width="199" height="240" fill="black">
<rect fill="white" x="68.957" y="57" width="199" height="240"/>
<path fill-rule="evenodd" clip-rule="evenodd" d="M72.957 181.407L90.113 253L146.113 293.5H190.613L230.113 268.5L242.613 258.5L246.113 253L262.88 169.166C261.19 170.705 259.407 172.482 257.613 174.5C249.613 183.5 250.113 168 251.613 158C252.397 152.772 249.765 149.458 247.575 146.699C245.575 144.18 243.943 142.125 245.613 139.5C249.113 134 251.613 121.5 251.613 109.5C251.613 99.9721 237.744 81.3032 231.028 72.2637C229.286 69.9182 228.025 68.221 227.613 67.5C226.013 64.7 225.613 62.6667 225.613 62C221.28 63.5 211.213 66.3 205.613 65.5C198.613 64.5 186.113 63 178.113 63C170.113 63 143.613 67 141.113 67.5C139.113 67.9 138.946 65.3333 139.113 64C129.946 67.8333 112.813 74.4 117.613 70C122.413 65.6 121.28 64.1667 120.113 64C114.78 66.6667 102.413 73.7 95.613 80.5C87.113 89 79.113 112.5 79.113 119.5C79.113 123.486 81.5455 130.068 83.6398 135.734C85.223 140.017 86.613 143.778 86.613 145.5C86.613 147.215 85.6024 149.021 84.4082 151.156C82.8165 154.001 80.8987 157.429 80.613 162C80.3055 166.92 82.267 173.352 83.5906 177.692L83.5906 177.692C84.4194 180.41 84.998 182.307 84.613 182.5C83.9585 182.827 77.6826 182.061 72.957 181.407Z"/>
</mask>
<path fill-rule="evenodd" clip-rule="evenodd" d="M72.957 181.407L90.113 253L146.113 293.5H190.613L230.113 268.5L242.613 258.5L246.113 253L262.88 169.166C261.19 170.705 259.407 172.482 257.613 174.5C249.613 183.5 250.113 168 251.613 158C252.397 152.772 249.765 149.458 247.575 146.699C245.575 144.18 243.943 142.125 245.613 139.5C249.113 134 251.613 121.5 251.613 109.5C251.613 99.9721 237.744 81.3032 231.028 72.2637C229.286 69.9182 228.025 68.221 227.613 67.5C226.013 64.7 225.613 62.6667 225.613 62C221.28 63.5 211.213 66.3 205.613 65.5C198.613 64.5 186.113 63 178.113 63C170.113 63 143.613 67 141.113 67.5C139.113 67.9 138.946 65.3333 139.113 64C129.946 67.8333 112.813 74.4 117.613 70C122.413 65.6 121.28 64.1667 120.113 64C114.78 66.6667 102.413 73.7 95.613 80.5C87.113 89 79.113 112.5 79.113 119.5C79.113 123.486 81.5455 130.068 83.6398 135.734C85.223 140.017 86.613 143.778 86.613 145.5C86.613 147.215 85.6024 149.021 84.4082 151.156C82.8165 154.001 80.8987 157.429 80.613 162C80.3055 166.92 82.267 173.352 83.5906 177.692L83.5906 177.692C84.4194 180.41 84.998 182.307 84.613 182.5C83.9585 182.827 77.6826 182.061 72.957 181.407Z" fill="#FDE7DD"/>
<path d="M90.113 253L87.1956 253.699L87.4545 254.78L88.3549 255.431L90.113 253ZM72.957 181.407L73.3686 178.435L69.0155 177.832L70.0396 182.106L72.957 181.407ZM146.113 293.5L144.355 295.931L145.142 296.5H146.113V293.5ZM190.613 293.5V296.5H191.483L192.217 296.035L190.613 293.5ZM230.113 268.5L231.717 271.035L231.858 270.946L231.987 270.843L230.113 268.5ZM242.613 258.5L244.487 260.843L244.876 260.531L245.144 260.111L242.613 258.5ZM246.113 253L248.644 254.611L248.945 254.138L249.055 253.588L246.113 253ZM262.88 169.166L265.822 169.754L267.613 160.798L260.86 166.948L262.88 169.166ZM257.613 174.5L255.371 172.507V172.507L257.613 174.5ZM251.613 158L254.58 158.445V158.445L251.613 158ZM247.575 146.699L245.225 148.564H245.225L247.575 146.699ZM245.613 139.5L243.082 137.889L245.613 139.5ZM231.028 72.2637L228.62 74.0527V74.0527L231.028 72.2637ZM227.613 67.5L230.218 66.0116V66.0116L227.613 67.5ZM225.613 62H228.613V57.7869L224.632 59.165L225.613 62ZM205.613 65.5L205.189 68.4698L205.613 65.5ZM141.113 67.5L140.525 64.5583V64.5583L141.113 67.5ZM139.113 64L142.09 64.3721L142.732 59.2349L137.956 61.2323L139.113 64ZM120.113 64L120.537 61.0302L119.61 60.8976L118.771 61.3167L120.113 64ZM95.613 80.5L93.4917 78.3787H93.4917L95.613 80.5ZM83.6398 135.734L80.8259 136.774H80.8259L83.6398 135.734ZM84.4082 151.156L87.0264 152.62H87.0264L84.4082 151.156ZM80.613 162L77.6188 161.813L80.613 162ZM83.5906 177.692L80.7211 178.567L80.7324 178.604L80.7446 178.641L83.5906 177.692ZM83.5906 177.692L86.4602 176.817L86.4489 176.78L86.4367 176.744L83.5906 177.692ZM84.613 182.5L83.2713 179.817L83.2713 179.817L84.613 182.5ZM93.0304 252.301L75.8744 180.708L70.0396 182.106L87.1956 253.699L93.0304 252.301ZM147.871 291.069L91.871 250.569L88.3549 255.431L144.355 295.931L147.871 291.069ZM190.613 290.5H146.113V296.5H190.613V290.5ZM228.509 265.965L189.009 290.965L192.217 296.035L231.717 271.035L228.509 265.965ZM240.739 256.157L228.239 266.157L231.987 270.843L244.487 260.843L240.739 256.157ZM243.582 251.389L240.082 256.889L245.144 260.111L248.644 254.611L243.582 251.389ZM259.938 168.578L243.171 252.412L249.055 253.588L265.822 169.754L259.938 168.578ZM259.855 176.493C261.575 174.559 263.283 172.856 264.9 171.384L260.86 166.948C259.098 168.553 257.239 170.405 255.371 172.507L259.855 176.493ZM248.646 157.555C247.891 162.589 247.319 169.375 248.094 173.883C248.292 175.034 248.606 176.224 249.141 177.255C249.672 178.276 250.6 179.469 252.16 179.977C253.757 180.498 255.278 180.064 256.459 179.405C257.623 178.755 258.749 177.738 259.855 176.493L255.371 172.507C254.477 173.512 253.869 173.979 253.535 174.165C253.218 174.342 253.477 174.096 254.019 174.273C254.525 174.437 254.605 174.756 254.465 174.488C254.331 174.229 254.153 173.716 254.007 172.867C253.407 169.375 253.835 163.411 254.58 158.445L248.646 157.555ZM245.225 148.564C247.436 151.349 249.22 153.729 248.646 157.555L254.58 158.445C255.574 151.816 252.094 147.566 249.924 144.833L245.225 148.564ZM243.082 137.889C241.701 140.06 241.649 142.238 242.421 144.225C243.069 145.895 244.316 147.419 245.225 148.564L249.924 144.833C248.834 143.46 248.264 142.697 248.014 142.053C247.918 141.806 247.918 141.685 247.923 141.63C247.927 141.579 247.948 141.419 248.144 141.111L243.082 137.889ZM248.613 109.5C248.613 115.306 248.007 121.234 246.984 126.349C245.945 131.544 244.533 135.61 243.082 137.889L248.144 141.111C250.193 137.89 251.781 132.956 252.867 127.526C253.969 122.016 254.613 115.694 254.613 109.5H248.613ZM228.62 74.0527C231.987 78.5842 237.057 85.4116 241.285 92.2727C243.399 95.7032 245.263 99.0789 246.59 102.13C247.945 105.245 248.613 107.742 248.613 109.5H254.613C254.613 106.494 253.548 103.084 252.092 99.7371C250.609 96.3254 248.585 92.6824 246.393 89.1247C242.008 82.0096 236.786 74.9827 233.436 70.4746L228.62 74.0527ZM225.008 68.9884C225.537 69.9132 226.964 71.824 228.62 74.0527L233.436 70.4746C231.607 68.0124 230.513 66.5289 230.218 66.0116L225.008 68.9884ZM222.613 62C222.613 63.3722 223.259 65.9267 225.008 68.9884L230.218 66.0116C229.519 64.7882 229.105 63.7731 228.871 63.0393C228.619 62.2466 228.613 61.9017 228.613 62H222.613ZM205.189 68.4698C208.544 68.9492 212.902 68.3452 216.703 67.5487C220.601 66.7321 224.323 65.621 226.594 64.835L224.632 59.165C222.569 59.879 219.092 60.9179 215.473 61.6763C211.757 62.4548 208.282 62.8508 206.037 62.5302L205.189 68.4698ZM178.113 66C185.879 66 198.192 67.4703 205.189 68.4698L206.037 62.5302C199.034 61.5297 186.347 60 178.113 60V66ZM141.701 70.4417C142.841 70.2138 149.996 69.1005 157.949 68.036C165.948 66.9652 174.355 66 178.113 66V60C173.871 60 165.028 61.0348 157.152 62.089C149.23 63.1495 141.885 64.2862 140.525 64.5583L141.701 70.4417ZM136.136 63.6279C136.025 64.5161 135.981 66.0237 136.475 67.409C136.733 68.1295 137.232 69.0831 138.217 69.7701C139.289 70.5177 140.538 70.6745 141.701 70.4417L140.525 64.5583C140.581 64.5469 140.74 64.5248 140.967 64.5647C141.203 64.6064 141.441 64.703 141.649 64.8486C141.85 64.9884 141.974 65.1379 142.041 65.2377C142.075 65.2873 142.096 65.3269 142.108 65.3517C142.121 65.3766 142.126 65.3906 142.126 65.391C142.126 65.3915 142.123 65.3823 142.117 65.362C142.112 65.3418 142.106 65.3138 142.1 65.2775C142.086 65.2034 142.075 65.1097 142.069 64.9992C142.057 64.771 142.069 64.5413 142.09 64.3721L136.136 63.6279ZM115.586 67.7885C115.215 68.1285 114.825 68.5265 114.511 68.9702C114.287 69.2886 113.655 70.2328 113.802 71.5067C114.003 73.2475 115.355 74.0196 116.104 74.2626C116.78 74.4815 117.432 74.474 117.817 74.4536C119.352 74.3725 121.706 73.7038 124.053 72.9404C129 71.3314 135.664 68.6941 140.27 66.7677L137.956 61.2323C133.395 63.1392 126.909 65.7019 122.197 67.2346C119.715 68.042 118.114 68.4296 117.5 68.462C117.348 68.47 117.575 68.432 117.954 68.5547C118.407 68.7016 119.589 69.3119 119.763 70.8187C119.828 71.3862 119.7 71.821 119.616 72.0391C119.53 72.2625 119.437 72.3967 119.414 72.4294C119.373 72.4878 119.411 72.4215 119.64 72.2115L115.586 67.7885ZM119.689 66.9698C119.51 66.9443 119.036 66.8341 118.617 66.3479C118.112 65.7619 118.103 65.1236 118.15 64.87C118.178 64.7165 118.184 64.8917 117.768 65.4633C117.372 66.0065 116.694 66.7723 115.586 67.7885L119.64 72.2115C120.931 71.0277 121.912 69.9643 122.618 68.9961C123.302 68.0562 123.852 67.0376 124.051 65.955C124.268 64.7722 124.058 63.4694 123.162 62.4302C122.352 61.4909 121.3 61.1391 120.537 61.0302L119.689 66.9698ZM97.7343 82.6213C104.173 76.1828 116.17 69.3256 121.455 66.6833L118.771 61.3167C113.389 64.0077 100.653 71.2172 93.4917 78.3787L97.7343 82.6213ZM82.113 119.5C82.113 118.161 82.524 115.695 83.3951 112.419C84.2458 109.22 85.4746 105.469 86.9685 101.657C90.0083 93.9029 93.9507 86.4049 97.7343 82.6213L93.4917 78.3787C88.7753 83.0951 84.4676 91.5971 81.3824 99.4676C79.8139 103.469 78.5114 107.437 77.5965 110.878C76.702 114.242 76.113 117.339 76.113 119.5H82.113ZM86.4538 134.694C85.4001 131.843 84.3004 128.865 83.4605 126.112C82.6001 123.291 82.113 121.015 82.113 119.5H76.113C76.113 121.971 76.8421 124.979 77.7215 127.862C78.6215 130.813 79.7852 133.958 80.8259 136.774L86.4538 134.694ZM89.613 145.5C89.613 144.097 89.1028 142.292 88.5752 140.657C88.0064 138.893 87.2384 136.817 86.4538 134.694L80.8259 136.774C81.6244 138.935 82.343 140.88 82.8649 142.498C83.4282 144.245 83.613 145.181 83.613 145.5H89.613ZM87.0264 152.62C87.6033 151.589 88.2382 150.461 88.7135 149.358C89.1929 148.245 89.613 146.935 89.613 145.5H83.613C83.613 145.78 83.5277 146.23 83.2033 146.983C82.8748 147.746 82.4072 148.588 81.79 149.691L87.0264 152.62ZM83.6071 162.187C83.8456 158.371 85.4258 155.481 87.0264 152.62L81.79 149.691C80.2072 152.521 77.9517 156.487 77.6188 161.813L83.6071 162.187ZM86.4602 176.817C85.0851 172.308 83.3407 166.45 83.6071 162.187L77.6188 161.813C77.2703 167.389 79.449 174.396 80.7211 178.567L86.4602 176.817ZM86.4367 176.744L86.4367 176.744L80.7446 178.641L80.7446 178.641L86.4367 176.744ZM85.9546 185.183C87.1065 184.607 87.4951 183.58 87.6194 183.095C87.7484 182.593 87.7414 182.145 87.7281 181.892C87.7 181.36 87.5835 180.801 87.475 180.346C87.2481 179.396 86.8626 178.137 86.4602 176.817L80.7211 178.567C81.1475 179.966 81.4656 181.013 81.639 181.74C81.7306 182.123 81.7383 182.245 81.7364 182.208C81.7361 182.202 81.7176 181.955 81.8078 181.604C81.8933 181.271 82.2157 180.345 83.2713 179.817L85.9546 185.183ZM72.5455 184.379C74.9219 184.708 77.711 185.068 80.0023 185.306C81.142 185.424 82.2 185.516 83.0371 185.556C83.4501 185.576 83.8636 185.585 84.2301 185.572C84.4116 185.565 84.6324 185.551 84.8623 185.517C85.0287 185.493 85.476 185.423 85.9546 185.183L83.2713 179.817C83.6681 179.618 83.9898 179.581 83.99 179.581C84.0537 179.571 84.068 179.574 84.006 179.576C83.8856 179.58 83.6645 179.579 83.3232 179.563C82.6519 179.531 81.7229 179.452 80.621 179.338C78.4294 179.11 75.7178 178.761 73.3686 178.435L72.5455 184.379Z" fill="black" mask="url(#path-2-outside-1_714_868)"/>
<g filter="url(#filter0_f_714_868)">
<path fill-rule="evenodd" clip-rule="evenodd" d="M210.428 83.182C202.406 76.3005 191.138 71.3136 175.611 70.9999C154.489 70.5732 139.351 77.9041 129.165 86.8617C124.62 89.9447 118.072 94.9287 114.089 99.7818C107.761 107.492 101.805 128.81 101.805 135.16C101.805 138.776 103.616 144.746 105.176 149.886C106.354 153.772 107.389 157.183 107.389 158.745C107.389 160.3 106.637 161.939 105.748 163.876C104.563 166.457 103.135 169.566 102.922 173.713C102.693 178.175 104.154 184.01 105.139 187.948C105.756 190.413 106.187 192.134 105.9 192.309C105.413 192.606 100.741 191.911 97.2227 191.317L109.995 256.261L151.684 293H184.812L214.218 270.322L223.524 261.25L226.13 256.261L238.612 180.213C237.354 181.609 236.026 183.221 234.691 185.052C228.735 193.216 229.107 179.155 230.224 170.084C230.808 165.342 228.849 162.335 227.218 159.832C225.729 157.548 224.514 155.683 225.757 153.302C228.363 148.313 230.224 136.974 230.224 126.088C230.224 123.559 229.34 120.319 227.963 116.796C226.951 107.453 222.278 93.6301 210.924 83.6131C210.884 83.3467 210.868 83.14 210.868 82.9999C210.729 83.0585 210.582 83.1194 210.428 83.182Z" fill="#FCD0BD"/>
</g>
<mask id="path-5-outside-2_714_868" maskUnits="userSpaceOnUse" x="61.1133" y="34" width="212" height="152" fill="black">
<rect fill="white" x="61.1133" y="34" width="212" height="152"/>
<path fill-rule="evenodd" clip-rule="evenodd" d="M72.9573 181.407C77.6829 182.061 83.9588 182.827 84.6133 182.5C84.9983 182.307 84.4197 180.41 83.5909 177.692C82.2673 173.352 80.3058 166.92 80.6133 162C80.899 157.429 82.8168 154.001 84.4085 151.156C85.6027 149.021 86.6133 147.215 86.6133 145.5C86.6133 143.778 85.2233 140.017 83.6401 135.734C81.5458 130.068 79.1133 123.486 79.1133 119.5C79.1133 112.5 87.1133 89 95.6133 80.5C102.413 73.7 114.78 66.6667 120.113 64C121.28 64.1667 122.413 65.6 117.613 70C112.813 74.4 129.947 67.8333 139.113 64C138.947 65.3333 139.113 67.9 141.113 67.5C143.613 67 170.113 63 178.113 63C186.113 63 198.613 64.5 205.613 65.5C211.213 66.3 221.28 63.5 225.613 62C225.613 62.6667 226.013 64.7 227.613 67.5C228.025 68.221 229.286 69.9182 231.029 72.2637C237.744 81.3032 251.613 99.9721 251.613 109.5C251.613 121.5 249.113 134 245.613 139.5C243.943 142.125 245.575 144.18 247.575 146.699C249.765 149.458 252.397 152.772 251.613 158C250.113 168 249.613 183.5 257.613 174.5C259.407 172.482 261.191 170.705 262.88 169.166L269.613 135.5L268.613 98L268.212 97.983C263.625 63.799 220.337 37 167.613 37C119.318 37 78.9405 59.4859 68.9727 89.5364L68.1133 89.5L64.1133 115.5V144.5L72.9573 181.407Z"/>
</mask>
<path fill-rule="evenodd" clip-rule="evenodd" d="M72.9573 181.407C77.6829 182.061 83.9588 182.827 84.6133 182.5C84.9983 182.307 84.4197 180.41 83.5909 177.692C82.2673 173.352 80.3058 166.92 80.6133 162C80.899 157.429 82.8168 154.001 84.4085 151.156C85.6027 149.021 86.6133 147.215 86.6133 145.5C86.6133 143.778 85.2233 140.017 83.6401 135.734C81.5458 130.068 79.1133 123.486 79.1133 119.5C79.1133 112.5 87.1133 89 95.6133 80.5C102.413 73.7 114.78 66.6667 120.113 64C121.28 64.1667 122.413 65.6 117.613 70C112.813 74.4 129.947 67.8333 139.113 64C138.947 65.3333 139.113 67.9 141.113 67.5C143.613 67 170.113 63 178.113 63C186.113 63 198.613 64.5 205.613 65.5C211.213 66.3 221.28 63.5 225.613 62C225.613 62.6667 226.013 64.7 227.613 67.5C228.025 68.221 229.286 69.9182 231.029 72.2637C237.744 81.3032 251.613 99.9721 251.613 109.5C251.613 121.5 249.113 134 245.613 139.5C243.943 142.125 245.575 144.18 247.575 146.699C249.765 149.458 252.397 152.772 251.613 158C250.113 168 249.613 183.5 257.613 174.5C259.407 172.482 261.191 170.705 262.88 169.166L269.613 135.5L268.613 98L268.212 97.983C263.625 63.799 220.337 37 167.613 37C119.318 37 78.9405 59.4859 68.9727 89.5364L68.1133 89.5L64.1133 115.5V144.5L72.9573 181.407Z" fill="#312922"/>
<path d="M84.6133 182.5L83.2717 179.817L83.2716 179.817L84.6133 182.5ZM72.9573 181.407L70.0399 182.106L70.5172 184.098L72.5458 184.379L72.9573 181.407ZM83.5909 177.692L86.4605 176.817L83.5909 177.692ZM80.6133 162L77.6191 161.813L80.6133 162ZM84.4085 151.156L87.0267 152.62L84.4085 151.156ZM83.6401 135.734L80.8262 136.774L83.6401 135.734ZM95.6133 80.5L93.492 78.3787L93.492 78.3787L95.6133 80.5ZM120.113 64L120.538 61.0302L119.61 60.8976L118.772 61.3167L120.113 64ZM139.113 64L142.09 64.3721L142.732 59.2349L137.956 61.2323L139.113 64ZM141.113 67.5L140.525 64.5583L141.113 67.5ZM205.613 65.5L205.189 68.4698L205.613 65.5ZM225.613 62H228.613V57.7869L224.632 59.165L225.613 62ZM227.613 67.5L230.218 66.0116L230.218 66.0116L227.613 67.5ZM231.029 72.2637L228.62 74.0527V74.0527L231.029 72.2637ZM245.613 139.5L243.082 137.889L245.613 139.5ZM247.575 146.699L245.225 148.564L247.575 146.699ZM251.613 158L254.58 158.445V158.445L251.613 158ZM257.613 174.5L255.371 172.507L257.613 174.5ZM262.88 169.166L264.9 171.384L265.629 170.721L265.822 169.754L262.88 169.166ZM269.613 135.5L272.555 136.088L272.621 135.757L272.612 135.42L269.613 135.5ZM268.613 98L271.612 97.92L271.538 95.1213L268.74 95.0027L268.613 98ZM268.212 97.983L265.238 98.3819L265.572 100.874L268.084 100.98L268.212 97.983ZM68.9727 89.5364L68.8457 92.5337L71.1075 92.6296L71.8202 90.4809L68.9727 89.5364ZM68.1133 89.5L68.2403 86.5027L65.5566 86.3889L65.1482 89.0438L68.1133 89.5ZM64.1133 115.5L61.1482 115.044L61.1133 115.271V115.5H64.1133ZM64.1133 144.5H61.1133V144.854L61.1959 145.199L64.1133 144.5ZM83.2716 179.817C83.6684 179.618 83.9901 179.581 83.9903 179.581C84.054 179.571 84.0683 179.574 84.0063 179.576C83.8859 179.58 83.6648 179.579 83.3235 179.563C82.6522 179.531 81.7232 179.452 80.6213 179.338C78.4297 179.11 75.7181 178.761 73.3689 178.435L72.5458 184.379C74.9222 184.708 77.7113 185.068 80.0026 185.306C81.1423 185.424 82.2003 185.516 83.0374 185.556C83.4504 185.576 83.8639 185.585 84.2304 185.572C84.4119 185.565 84.6327 185.551 84.8626 185.517C85.029 185.493 85.4763 185.423 85.9549 185.183L83.2716 179.817ZM80.7214 178.567C81.1478 179.965 81.4659 181.013 81.6393 181.74C81.7309 182.123 81.7386 182.245 81.7367 182.208C81.7364 182.202 81.7179 181.955 81.8081 181.604C81.8936 181.271 82.216 180.345 83.2717 179.817L85.9549 185.183C87.1068 184.607 87.4954 183.58 87.6197 183.095C87.7487 182.593 87.7417 182.145 87.7284 181.892C87.7003 181.36 87.5838 180.801 87.4753 180.346C87.2484 179.396 86.8628 178.137 86.4605 176.817L80.7214 178.567ZM77.6191 161.813C77.2706 167.389 79.4493 174.396 80.7214 178.567L86.4605 176.817C85.0854 172.308 83.341 166.45 83.6074 162.187L77.6191 161.813ZM81.7903 149.691C80.2075 152.521 77.952 156.487 77.6191 161.813L83.6074 162.187C83.8459 158.371 85.4261 155.481 87.0267 152.62L81.7903 149.691ZM83.6133 145.5C83.6133 145.78 83.528 146.23 83.2036 146.983C82.8751 147.746 82.4076 148.588 81.7903 149.691L87.0267 152.62C87.6036 151.589 88.2385 150.461 88.7138 149.358C89.1932 148.245 89.6133 146.935 89.6133 145.5H83.6133ZM80.8262 136.774C81.6247 138.935 82.3433 140.88 82.8652 142.498C83.4285 144.245 83.6133 145.181 83.6133 145.5H89.6133C89.6133 144.097 89.1031 142.292 88.5755 140.657C88.0067 138.893 87.2387 136.817 86.4541 134.694L80.8262 136.774ZM76.1133 119.5C76.1133 121.971 76.8424 124.979 77.7218 127.862C78.6218 130.813 79.7855 133.958 80.8262 136.774L86.4541 134.694C85.4004 131.843 84.3007 128.865 83.4608 126.112C82.6004 123.291 82.1133 121.015 82.1133 119.5H76.1133ZM93.492 78.3787C88.7756 83.0951 84.4679 91.5971 81.3827 99.4676C79.8142 103.469 78.5117 107.437 77.5968 110.878C76.7023 114.242 76.1133 117.339 76.1133 119.5H82.1133C82.1133 118.161 82.5243 115.695 83.3954 112.419C84.2461 109.22 85.4749 105.469 86.9688 101.657C90.0086 93.9029 93.951 86.4049 97.7346 82.6213L93.492 78.3787ZM118.772 61.3167C113.39 64.0077 100.653 71.2172 93.492 78.3787L97.7346 82.6213C104.173 76.1828 116.17 69.3256 121.455 66.6833L118.772 61.3167ZM119.64 72.2115C120.932 71.0277 121.912 69.9643 122.618 68.9961C123.302 68.0562 123.852 67.0376 124.051 65.955C124.269 64.7722 124.058 63.4694 123.162 62.4302C122.352 61.4909 121.3 61.1391 120.538 61.0302L119.689 66.9698C119.51 66.9443 119.037 66.8341 118.618 66.3479C118.112 65.7619 118.104 65.1236 118.15 64.87C118.178 64.7165 118.185 64.8917 117.768 65.4633C117.372 66.0065 116.695 66.7723 115.586 67.7885L119.64 72.2115ZM137.956 61.2323C133.396 63.1392 126.91 65.7019 122.198 67.2346C119.716 68.042 118.114 68.4296 117.5 68.462C117.348 68.47 117.575 68.432 117.954 68.5547C118.407 68.7016 119.589 69.3119 119.763 70.8187C119.829 71.3862 119.7 71.821 119.616 72.0391C119.53 72.2625 119.437 72.3967 119.414 72.4294C119.373 72.4878 119.411 72.4215 119.64 72.2115L115.586 67.7885C115.215 68.1285 114.825 68.5265 114.512 68.9702C114.287 69.2886 113.656 70.2328 113.803 71.5067C114.004 73.2475 115.355 74.0196 116.105 74.2626C116.78 74.4815 117.432 74.474 117.817 74.4536C119.352 74.3725 121.707 73.7038 124.054 72.9404C129 71.3314 135.664 68.6941 140.271 66.7677L137.956 61.2323ZM140.525 64.5583C140.582 64.5469 140.741 64.5248 140.967 64.5647C141.203 64.6064 141.441 64.703 141.65 64.8486C141.85 64.9884 141.974 65.1379 142.042 65.2377C142.075 65.2873 142.096 65.3269 142.109 65.3517C142.121 65.3766 142.126 65.3906 142.126 65.391C142.126 65.3915 142.123 65.3823 142.118 65.362C142.113 65.3418 142.106 65.3138 142.1 65.2775C142.087 65.2034 142.076 65.1097 142.07 64.9992C142.057 64.771 142.069 64.5413 142.09 64.3721L136.136 63.6279C136.025 64.5161 135.981 66.0237 136.476 67.409C136.733 68.1295 137.232 69.0831 138.218 69.7701C139.29 70.5177 140.538 70.6745 141.702 70.4417L140.525 64.5583ZM178.113 60C173.871 60 165.028 61.0348 157.153 62.089C149.23 63.1495 141.885 64.2862 140.525 64.5583L141.702 70.4417C142.841 70.2138 149.996 69.1005 157.949 68.036C165.948 66.9652 174.355 66 178.113 66V60ZM206.038 62.5302C199.034 61.5297 186.347 60 178.113 60V66C185.879 66 198.193 67.4703 205.189 68.4698L206.038 62.5302ZM224.632 59.165C222.569 59.879 219.092 60.9179 215.473 61.6763C211.757 62.4548 208.282 62.8508 206.038 62.5302L205.189 68.4698C208.545 68.9492 212.903 68.3452 216.704 67.5487C220.601 66.7321 224.324 65.621 226.595 64.835L224.632 59.165ZM230.218 66.0116C229.519 64.7882 229.105 63.7731 228.872 63.0393C228.619 62.2466 228.613 61.9017 228.613 62H222.613C222.613 63.3722 223.259 65.9267 225.009 68.9884L230.218 66.0116ZM233.437 70.4746C231.608 68.0124 230.514 66.5289 230.218 66.0116L225.009 68.9884C225.537 69.9132 226.965 71.824 228.62 74.0527L233.437 70.4746ZM254.613 109.5C254.613 106.494 253.548 103.084 252.092 99.7371C250.609 96.3254 248.586 92.6824 246.393 89.1247C242.008 82.0096 236.786 74.9827 233.437 70.4746L228.62 74.0527C231.987 78.5842 237.057 85.4116 241.285 92.2727C243.4 95.7032 245.263 99.0789 246.59 102.13C247.945 105.245 248.613 107.742 248.613 109.5H254.613ZM248.144 141.111C250.194 137.89 251.781 132.956 252.868 127.526C253.969 122.016 254.613 115.694 254.613 109.5H248.613C248.613 115.306 248.007 121.234 246.984 126.349C245.945 131.544 244.533 135.61 243.082 137.889L248.144 141.111ZM249.924 144.833C248.834 143.46 248.264 142.697 248.014 142.053C247.919 141.806 247.919 141.685 247.923 141.63C247.928 141.579 247.948 141.419 248.144 141.111L243.082 137.889C241.701 140.06 241.65 142.238 242.421 144.225C243.07 145.895 244.316 147.419 245.225 148.564L249.924 144.833ZM254.58 158.445C255.574 151.816 252.094 147.566 249.924 144.833L245.225 148.564C247.437 151.349 249.22 153.729 248.646 157.555L254.58 158.445ZM255.371 172.507C254.477 173.512 253.869 173.979 253.535 174.165C253.218 174.342 253.477 174.096 254.019 174.273C254.525 174.437 254.605 174.756 254.466 174.488C254.331 174.229 254.153 173.716 254.007 172.867C253.407 169.375 253.835 163.411 254.58 158.445L248.646 157.555C247.891 162.589 247.319 169.375 248.094 173.883C248.292 175.034 248.606 176.224 249.142 177.255C249.672 178.276 250.6 179.469 252.16 179.977C253.757 180.498 255.278 180.064 256.459 179.405C257.623 178.755 258.749 177.738 259.856 176.493L255.371 172.507ZM260.86 166.948C259.098 168.553 257.24 170.405 255.371 172.507L259.856 176.493C261.575 174.559 263.284 172.856 264.9 171.384L260.86 166.948ZM266.672 134.912L259.938 168.578L265.822 169.754L272.555 136.088L266.672 134.912ZM265.614 98.08L266.614 135.58L272.612 135.42L271.612 97.92L265.614 98.08ZM268.084 100.98L268.486 100.997L268.74 95.0027L268.339 94.9857L268.084 100.98ZM167.613 40C193.492 40 216.941 46.5813 234.401 57.2335C251.893 67.9047 263.103 82.4658 265.238 98.3819L271.185 97.584C268.734 79.3162 256.006 63.3858 237.526 52.1115C219.015 40.8182 194.459 34 167.613 34V40ZM71.8202 90.4809C76.4936 76.3918 88.4167 63.7749 105.345 54.6393C122.243 45.5202 143.914 40 167.613 40V34C143.018 34 120.352 39.7227 102.496 49.3592C84.6695 58.9792 71.4197 72.6305 66.1253 88.5919L71.8202 90.4809ZM67.9862 92.4973L68.8457 92.5337L69.0998 86.5391L68.2403 86.5027L67.9862 92.4973ZM67.0784 115.956L71.0784 89.9562L65.1482 89.0438L61.1482 115.044L67.0784 115.956ZM67.1133 144.5V115.5H61.1133V144.5H67.1133ZM75.8747 180.708L67.0307 143.801L61.1959 145.199L70.0399 182.106L75.8747 180.708Z" fill="black" mask="url(#path-5-outside-2_714_868)"/>
<path d="M89.6133 210C91.6133 209.333 95.8133 207.2 96.6133 204C97.4133 200.8 102.28 198.333 104.613 197.5" stroke="black"/>
<path d="M155.613 217C158.28 219 163.313 224.2 162.113 229" stroke="black" stroke-width="3" stroke-linecap="round"/>
<mask id="path-9-inside-3_714_868" fill="white">
<path fill-rule="evenodd" clip-rule="evenodd" d="M248.969 238.716C251.161 240.068 254.381 240.018 258.921 238C285.921 226 290.421 163 275.921 163.5C270.612 163.683 265.869 167.993 261.997 173.572L248.969 238.716Z"/>
</mask>
<path fill-rule="evenodd" clip-rule="evenodd" d="M248.969 238.716C251.161 240.068 254.381 240.018 258.921 238C285.921 226 290.421 163 275.921 163.5C270.612 163.683 265.869 167.993 261.997 173.572L248.969 238.716Z" fill="#FDE7DD"/>
<path d="M248.969 238.716L246.027 238.127L245.618 240.173L247.393 241.269L248.969 238.716ZM258.921 238L257.703 235.259H257.703L258.921 238ZM275.921 163.5L275.818 160.502L275.921 163.5ZM261.997 173.572L259.533 171.862L259.178 172.373L259.056 172.984L261.997 173.572ZM247.393 241.269C250.852 243.403 255.273 242.905 260.14 240.741L257.703 235.259C253.489 237.131 251.469 236.733 250.544 236.163L247.393 241.269ZM260.14 240.741C267.742 237.363 273.502 230.529 277.662 222.624C281.841 214.684 284.565 205.368 285.948 196.526C287.327 187.707 287.406 179.13 286.122 172.658C285.484 169.444 284.464 166.51 282.903 164.323C281.289 162.061 278.913 160.395 275.818 160.502L276.025 166.498C276.554 166.48 277.209 166.673 278.019 167.808C278.882 169.017 279.679 171.017 280.236 173.826C281.343 179.401 281.328 187.231 280.02 195.599C278.715 203.944 276.158 212.598 272.352 219.829C268.528 227.096 263.601 232.637 257.703 235.259L260.14 240.741ZM275.818 160.502C268.973 160.738 263.482 166.17 259.533 171.862L264.462 175.282C268.255 169.815 272.252 166.628 276.025 166.498L275.818 160.502ZM259.056 172.984L246.027 238.127L251.91 239.304L264.939 174.16L259.056 172.984Z" fill="black" mask="url(#path-9-inside-3_714_868)"/>
<mask id="path-11-inside-4_714_868" fill="white">
<path fill-rule="evenodd" clip-rule="evenodd" d="M70.6181 171.637L72.9593 181.407L86.4175 237.569C84.2846 239.988 80.697 240.481 75.1145 238C48.1145 226 43.6145 163 58.1145 163.5C62.7911 163.661 67.0289 167.024 70.6181 171.637Z"/>
</mask>
<path fill-rule="evenodd" clip-rule="evenodd" d="M70.6181 171.637L72.9593 181.407L86.4175 237.569C84.2846 239.988 80.697 240.481 75.1145 238C48.1145 226 43.6145 163 58.1145 163.5C62.7911 163.661 67.0289 167.024 70.6181 171.637Z" fill="#FDE7DD"/>
<path d="M72.9593 181.407L70.0419 182.106L72.9593 181.407ZM70.6181 171.637L73.5355 170.938L73.3843 170.307L72.9857 169.795L70.6181 171.637ZM86.4175 237.569L88.6675 239.553L89.6979 238.385L89.3349 236.87L86.4175 237.569ZM75.1145 238L76.3329 235.259L75.1145 238ZM58.1145 163.5L58.2179 160.502L58.1145 163.5ZM75.8767 180.708L73.5355 170.938L67.7007 172.336L70.0419 182.106L75.8767 180.708ZM89.3349 236.87L75.8767 180.708L70.0419 182.106L83.5001 238.268L89.3349 236.87ZM84.1674 235.585C83.648 236.174 82.9713 236.56 81.8737 236.628C80.6697 236.702 78.8786 236.39 76.3329 235.259L73.8961 240.741C76.9329 242.091 79.7268 242.773 82.2455 242.616C84.8705 242.453 87.0541 241.383 88.6675 239.553L84.1674 235.585ZM76.3329 235.259C70.435 232.637 65.5076 227.096 61.6833 219.829C57.8776 212.598 55.3208 203.944 54.016 195.599C52.7075 187.231 52.693 179.401 53.7993 173.826C54.3568 171.017 55.1534 169.017 56.0164 167.808C56.8263 166.673 57.4816 166.48 58.0111 166.498L58.2179 160.502C55.1224 160.395 52.7464 162.061 51.1325 164.323C49.5717 166.51 48.5518 169.444 47.914 172.658C46.6297 179.13 46.709 187.707 48.088 196.526C49.4706 205.368 52.1951 214.684 56.3737 222.624C60.5339 230.529 66.2939 237.363 73.8961 240.741L76.3329 235.259ZM58.0111 166.498C61.3067 166.612 64.8072 169.054 68.2505 173.479L72.9857 169.795C69.2505 164.995 64.2754 160.711 58.2179 160.502L58.0111 166.498Z" fill="black" mask="url(#path-11-inside-4_714_868)"/>
<path d="M120.613 182C130.157 182.298 136.403 179.65 139.722 177.247C141.228 176.157 141.023 174.065 139.612 172.856C138.967 172.304 138.147 172 137.298 172H99.7643C99.3474 172 98.9477 172.166 98.653 172.46C98.0679 173.045 98.0349 173.984 98.654 174.533C101.848 177.365 109.305 181.647 120.613 182Z" fill="#FFF6F1" stroke="black" stroke-width="3"/>
<path d="M213.113 182C203.569 182.298 197.324 179.65 194.004 177.247C192.499 176.157 192.704 174.065 194.115 172.856C194.759 172.304 195.58 172 196.428 172H233.962C234.379 172 234.779 172.166 235.074 172.46C235.659 173.045 235.692 173.984 235.073 174.533C231.879 177.365 224.421 181.647 213.113 182Z" fill="#FFF6F1" stroke="black" stroke-width="3"/>
<path d="M152.614 248.5C149.614 251.167 151.311 255.9 154.111 257.5C156.111 258.643 172.613 257.5 175.613 257.5C180.613 257.5 183.113 247.5 181.113 253" stroke="black" stroke-width="3" stroke-linecap="round"/>
<path d="M147.613 166C151.947 170.5 159.813 184.2 156.613 203" stroke="black" stroke-width="3" stroke-linecap="round"/>
<path d="M86.6133 201.5C88.4466 200.333 94.5133 197.9 104.113 197.5" stroke="black"/>
<path d="M223.113 197.5C230.28 197.5 245.013 198.6 246.613 203" stroke="black"/>
<path d="M232.613 201.5C234.113 203.167 238.713 206.3 245.113 205.5" stroke="black"/>
<path d="M237.113 208C237.613 209 239.713 211 244.113 211" stroke="black"/>
<path d="M102.113 164C111.113 160.167 131.013 156 138.613 170" stroke="black" stroke-width="2" stroke-linecap="round"/>
<path d="M192.613 171C197.113 165 210.513 155 228.113 163" stroke="black" stroke-width="2" stroke-linecap="round"/>
<path d="M137.113 155.5C149.913 157.9 151.113 149.5 150.113 145C149.113 145.667 148.113 147.5 146.113 149C144.324 150.342 131.113 151 127.113 150.5C123.113 150 112.613 150.5 104.113 152C97.3133 153.2 93.9466 157.833 93.1133 160C102.447 157.5 124.313 153.1 137.113 155.5Z" fill="#020910"/>
<path d="M183.613 165C176.413 162.6 176.613 153.667 177.613 149.5C178.946 152.833 180.113 158.5 183.113 160C184.957 160.922 190.113 160.5 209.613 149.5C225.213 140.7 234.779 144.167 237.613 147C231.446 148.667 218.013 152.5 213.613 154.5C208.113 157 192.613 168 183.613 165Z" fill="#020910"/>
<path d="M155.613 142.5C155.947 145.333 156.013 152 153.613 156" stroke="black"/>
<path d="M124.582 175.5C124.582 177.709 122.791 179.5 120.582 179.5C118.373 179.5 116.582 177.709 116.582 175.5C116.582 173.291 118.373 173.5 120.582 173.5C122.791 173.5 124.582 173.291 124.582 175.5Z" fill="#312922"/>
<path d="M217.613 175.5C217.613 177.709 215.822 179.5 213.613 179.5C211.404 179.5 209.613 177.709 209.613 175.5C209.613 173.291 211.404 173 213.613 173C215.822 173 217.613 173.291 217.613 175.5Z" fill="#312922"/>
<defs>
<filter id="filter0_f_714_868" x="92.2227" y="65.9822" width="151.389" height="232.018" filterUnits="userSpaceOnUse" color-interpolation-filters="sRGB">
<feFlood flood-opacity="0" result="BackgroundImageFix"/>
<feBlend mode="normal" in="SourceGraphic" in2="BackgroundImageFix" result="shape"/>
<feGaussianBlur stdDeviation="2.5" result="effect1_foregroundBlur_714_868"/>
</filter>
</defs>
</svg>
