<svg width="39" height="40" viewBox="0 0 39 40" fill="none" xmlns="http://www.w3.org/2000/svg">
<path d="M19.5 35.6L26.247 23.9H26.2275C26.8905 22.73 27.3 21.4235 27.3 20C27.3 17.66 26.247 15.5735 24.609 14.15H33.9495C34.6905 15.9635 35.1 17.933 35.1 20C35.1 24.1374 33.4564 28.1053 30.5309 31.0309C27.6053 33.9564 23.6374 35.6 19.5 35.6ZM3.9 20C3.9 17.153 4.6605 14.501 5.9865 12.2L12.753 23.9H12.7725C14.118 26.2205 16.575 27.8 19.5 27.8C20.3775 27.8 21.216 27.6245 22.0155 27.3515L17.3355 35.4245C9.75 34.3715 3.9 27.878 3.9 20ZM25.35 20C25.35 21.5515 24.7337 23.0395 23.6366 24.1366C22.5395 25.2337 21.0515 25.85 19.5 25.85C17.9485 25.85 16.4605 25.2337 15.3634 24.1366C14.2663 23.0395 13.65 21.5515 13.65 20C13.65 18.4485 14.2663 16.9605 15.3634 15.8634C16.4605 14.7663 17.9485 14.15 19.5 14.15C21.0515 14.15 22.5395 14.7663 23.6366 15.8634C24.7337 16.9605 25.35 18.4485 25.35 20ZM19.5 4.4C25.272 4.4 30.303 7.5395 32.994 12.2H19.5C15.717 12.2 12.5775 14.891 11.856 18.4595L7.215 10.406C10.062 6.7595 14.508 4.4 19.5 4.4ZM19.5 0.5C16.9392 0.5 14.4035 1.00438 12.0377 1.98435C9.67182 2.96432 7.52216 4.40068 5.71142 6.21142C2.05446 9.86838 0 14.8283 0 20C0 25.1717 2.05446 30.1316 5.71142 33.7886C7.52216 35.5993 9.67182 37.0357 12.0377 38.0157C14.4035 38.9956 16.9392 39.5 19.5 39.5C24.6717 39.5 29.6316 37.4455 33.2886 33.7886C36.9455 30.1316 39 25.1717 39 20C39 17.4392 38.4956 14.9035 37.5157 12.5377C36.5357 10.1718 35.0993 8.02216 33.2886 6.21142C31.4778 4.40068 29.3282 2.96432 26.9623 1.98435C24.5965 1.00438 22.0608 0.5 19.5 0.5Z" fill="#1E2221"/>
</svg>
