<svg width="62" height="62" viewBox="0 0 62 62" fill="none" xmlns="http://www.w3.org/2000/svg">
<path d="M44.516 37.2C44.764 35.154 44.95 33.108 44.95 31C44.95 28.892 44.764 26.846 44.516 24.8H54.994C55.49 26.784 55.8 28.861 55.8 31C55.8 33.139 55.49 35.216 54.994 37.2M39.029 54.436C40.889 50.995 42.315 47.275 43.307 43.4H52.452C49.476 48.515 44.733 52.483 39.029 54.436ZM38.254 37.2H23.746C23.436 35.154 23.25 33.108 23.25 31C23.25 28.892 23.436 26.815 23.746 24.8H38.254C38.533 26.815 38.75 28.892 38.75 31C38.75 33.108 38.533 35.154 38.254 37.2ZM31 55.676C28.427 51.956 26.35 47.833 25.079 43.4H36.921C35.65 47.833 33.573 51.956 31 55.676ZM18.6 18.6H9.548C12.493 13.454 17.267 9.486 22.94 7.564C21.08 11.005 19.685 14.725 18.6 18.6ZM9.548 43.4H18.6C19.685 47.275 21.08 50.995 22.94 54.436C17.267 52.483 12.493 48.515 9.548 43.4ZM7.006 37.2C6.51 35.216 6.2 33.139 6.2 31C6.2 28.861 6.51 26.784 7.006 24.8H17.484C17.236 26.846 17.05 28.892 17.05 31C17.05 33.108 17.236 35.154 17.484 37.2M31 6.293C33.573 10.013 35.65 14.167 36.921 18.6H25.079C26.35 14.167 28.427 10.013 31 6.293ZM52.452 18.6H43.307C42.315 14.725 40.889 11.005 39.029 7.564C44.733 9.517 49.476 13.454 52.452 18.6ZM31 0C13.857 0 0 13.95 0 31C0 39.2217 3.26606 47.1067 9.07969 52.9203C11.9583 55.7989 15.3757 58.0824 19.1368 59.6403C22.8979 61.1982 26.929 62 31 62C39.2217 62 47.1067 58.7339 52.9203 52.9203C58.7339 47.1067 62 39.2217 62 31C62 26.929 61.1982 22.8979 59.6403 19.1368C58.0824 15.3757 55.7989 11.9583 52.9203 9.07969C50.0417 6.20107 46.6243 3.91763 42.8632 2.35973C39.1021 0.801839 35.071 0 31 0Z" fill="white"/>
</svg>
