<svg width="77" height="66" viewBox="0 0 77 66" fill="none" xmlns="http://www.w3.org/2000/svg">
<path d="M62.59 36.2267L40.3333 58.4467V66H47.8867L70.1067 43.7433M75.9 35.1267L71.2067 30.4333C70.84 30.03 70.3267 29.81 69.8133 29.81C69.2633 29.8467 68.75 30.03 68.3833 30.4333L64.7167 34.1L72.2333 41.4333L75.9 37.7667C76.5967 37.0333 76.5967 35.86 75.9 35.1267ZM33 51.3333H7.33333V14.6667L36.6667 33L66 14.6667V22H73.3333V7.33333C73.3333 3.3 70.0333 0 66 0H7.33333C3.3 0 0 3.3 0 7.33333V51.3333C0 55.3667 3.3 58.6667 7.33333 58.6667H33V51.3333ZM66 7.33333L36.6667 25.6667L7.33333 7.33333H66Z" fill="white"/>
</svg>
