<svg width="38" height="40" viewBox="0 0 38 40" fill="none" xmlns="http://www.w3.org/2000/svg">
<path d="M9.21428 10.0707C9.23328 10.0707 9.23328 10.0707 9.21428 10.0707V10.0707ZM36.6291 13.5818C35.8122 11.5997 34.1213 9.4666 32.8104 8.78703C33.8744 10.8824 34.5013 12.9777 34.7483 14.5257V14.5634C32.6015 9.24008 28.9537 7.08809 25.971 2.40658C25.819 2.18006 25.648 1.93466 25.515 1.68925C25.439 1.55712 25.382 1.42498 25.306 1.29284C25.192 1.04743 25.078 0.802033 25.021 0.537754C25.021 0.518877 25.002 0.5 24.983 0.5H24.945H24.9261C20.7084 2.95402 18.9415 7.27686 18.5046 10.014C17.1937 10.0895 15.9018 10.4105 14.7238 10.9768C14.4959 11.0712 14.4009 11.3354 14.4769 11.562C14.5719 11.8262 14.8758 11.9584 15.1228 11.8451C16.1487 11.3543 17.2886 11.0712 18.4286 10.9956H18.5236C18.6755 10.9768 18.8465 10.9768 18.9985 10.9768C19.9484 10.9579 20.8414 11.09 21.7343 11.3543L21.8483 11.3921C22.0383 11.4298 22.1713 11.5053 22.3233 11.5053C22.4182 11.5808 22.5322 11.6186 22.6272 11.6563L22.8932 11.7696C23.0262 11.8262 23.1592 11.8829 23.2732 11.9395C23.3302 11.9773 23.3872 11.9961 23.4442 12.0339C23.5772 12.1094 23.7481 12.166 23.8241 12.2415C23.9001 12.2793 23.9761 12.3359 24.0521 12.3737C25.439 13.2231 26.5979 14.3935 27.3769 15.7904C26.3699 15.092 24.5461 14.3935 22.7982 14.6955C29.6377 18.1123 27.7948 29.7972 18.3146 29.3441C17.4786 29.3253 16.6427 29.1554 15.8448 28.8722C15.6548 28.8156 15.4648 28.7401 15.2938 28.6457C15.1988 28.6079 15.0658 28.5513 14.9708 28.4947C12.634 27.3054 10.7152 25.059 10.4492 22.3219C10.4492 22.3219 11.3991 19.0561 16.7757 19.0561C17.3646 19.0561 18.9985 17.4327 19.0555 16.9797C19.0555 16.8098 15.7498 15.5073 14.4579 14.2425C13.7549 13.5629 13.4319 13.242 13.147 12.9966C12.995 12.8645 12.824 12.7512 12.653 12.6379C12.216 11.1278 12.197 9.52323 12.596 8.01307C10.6392 8.90029 9.11929 10.2972 8.01737 11.5053C7.25743 10.5615 7.31443 7.44676 7.35243 6.78606C7.33343 6.78606 6.78247 7.08809 6.72547 7.12585C6.06053 7.59777 5.43358 8.12633 4.86362 8.67377C4.19867 9.37222 3.60972 10.0707 3.07776 10.8257C1.89985 12.5436 0.949926 14.5068 0.531958 16.5644C0.531958 16.5833 0.341973 17.3383 0.208983 18.3011L0.151988 18.7352C0.113991 19.0561 0.0759941 19.3393 0 19.8301V19.8867V20.5097V20.6041C0 31.0431 8.54933 39.5 18.9985 39.5C28.4408 39.5 36.2492 32.7231 37.769 23.7754C37.807 23.5678 37.826 23.3224 37.864 23.077C38.244 19.8301 37.826 16.4322 36.6291 13.5818Z" fill="#1E2221"/>
</svg>
